<?xml version="1.0" encoding="UTF-8" standalone="no"?>
<svg
   version="1.1"
   x="0px"
   y="0px"
   viewBox="0 0 100 125"
   style="enable-background:new 0 0 100 100;"
   xml:space="preserve"
   id="svg2"
   sodipodi:docname="marker_castelo.svg"
   inkscape:version="1.4.2 (f4327f4, 2025-05-13)"
   xmlns:inkscape="http://www.inkscape.org/namespaces/inkscape"
   xmlns:sodipodi="http://sodipodi.sourceforge.net/DTD/sodipodi-0.dtd"
   xmlns="http://www.w3.org/2000/svg"
   xmlns:svg="http://www.w3.org/2000/svg"><defs
     id="defs2" /><sodipodi:namedview
     id="namedview2"
     pagecolor="#ffffff"
     bordercolor="#000000"
     borderopacity="0.25"
     inkscape:showpageshadow="2"
     inkscape:pageopacity="0.0"
     inkscape:pagecheckerboard="0"
     inkscape:deskcolor="#d1d1d1"
     inkscape:zoom="6.184"
     inkscape:cx="35.17141"
     inkscape:cy="47.946313"
     inkscape:window-width="1920"
     inkscape:window-height="991"
     inkscape:window-x="-9"
     inkscape:window-y="-9"
     inkscape:window-maximized="1"
     inkscape:current-layer="g1" /><g
     id="g1"
     style="fill:#000000"><rect
       style="fill:#ffffff"
       id="rect1"
       width="42.043983"
       height="41.882278"
       x="29.592497"
       y="20.051746" /><polygon
       points="43.8,42.3 44.7,42.4 49.4,36.6 54.5,38 54.5,29.4 43.8,29.4  "
       id="polygon1"
       style="fill:#000000" /><path
       d="M50,5.2c-21.2,0-38.3,17.2-38.3,38.3c0,16.9,10.9,31.2,26.1,36.3L50,94.8l12.2-14.9c15.2-5.1,26.1-19.4,26.1-36.3   C88.3,22.4,71.2,5.2,50,5.2z M71.2,54.5c-0.5,0.5-1.4,0.6-1.9,0.1l-8.8-8l-2.9-4.9l-7.3-2l-4.5,5.6l-3.6-0.4c0,0,0,0,0,0l-4.9-0.5   l-5.2,12.8c-0.2,0.5-0.7,0.8-1.2,0.8c-0.2,0-0.3,0-0.5-0.1c-0.7-0.3-1-1.1-0.7-1.8l6-14.7l5.4,0.6V22.9c0-0.7,0.6-1.3,1.3-1.3   s1.3,0.6,1.3,1.3v3.8h4V24c0-0.7,0.6-1.3,1.3-1.3c0.7,0,1.3,0.6,1.3,1.3v2.7h4v-3.8c0-0.7,0.6-1.3,1.3-1.3c0.7,0,1.3,0.6,1.3,1.3   v15.8l2.3,0.6l3.2,5.5l8.5,7.7C71.7,53.1,71.7,54,71.2,54.5z"
       id="path1"
       style="fill:#000000" /></g></svg>
