<?xml version="1.0" encoding="UTF-8" standalone="no"?>
<svg
   version="1.1"
   x="0px"
   y="0px"
   viewBox="0 0 100 125"
   style="enable-background:new 0 0 100 100;"
   xml:space="preserve"
   id="svg2"
   sodipodi:docname="marker_monumento.svg"
   inkscape:version="1.4.2 (f4327f4, 2025-05-13)"
   xmlns:inkscape="http://www.inkscape.org/namespaces/inkscape"
   xmlns:sodipodi="http://sodipodi.sourceforge.net/DTD/sodipodi-0.dtd"
   xmlns="http://www.w3.org/2000/svg"
   xmlns:svg="http://www.w3.org/2000/svg"><defs
     id="defs2" /><sodipodi:namedview
     id="namedview2"
     pagecolor="#ffffff"
     bordercolor="#000000"
     borderopacity="0.25"
     inkscape:showpageshadow="2"
     inkscape:pageopacity="0.0"
     inkscape:pagecheckerboard="0"
     inkscape:deskcolor="#d1d1d1"
     inkscape:zoom="6.184"
     inkscape:cx="50.048512"
     inkscape:cy="62.338292"
     inkscape:window-width="1920"
     inkscape:window-height="991"
     inkscape:window-x="-9"
     inkscape:window-y="-9"
     inkscape:window-maximized="1"
     inkscape:current-layer="svg2" /><rect
     style="fill:#ffffff"
     id="rect1"
     width="34.767139"
     height="39.941784"
     x="33.150066"
     y="22.962484" /><g
     id="g1"
     style="fill:#44aa00"><polygon
       points="41.7,31.9 58.4,31.9 59.6,29.3 40.5,29.3  "
       id="polygon1"
       style="fill:#44aa00" /><path
       d="M50,5.2c-21.2,0-38.3,17.2-38.3,38.3c0,16.9,10.9,31.2,26.1,36.3L50,94.8l12.2-14.9c15.2-5.1,26.1-19.4,26.1-36.3   C88.3,22.4,71.2,5.2,50,5.2z M57.8,59.5H42.4c-0.7,0-1.3-0.6-1.3-1.3c0-0.7,0.6-1.3,1.3-1.3h15.4c0.7,0,1.3,0.6,1.3,1.3   C59.1,58.9,58.5,59.5,57.8,59.5z M62.9,28.5l-2.4,5.3c-0.2,0.5-0.7,0.8-1.2,0.8h-0.9V54c0,0.7-0.6,1.3-1.3,1.3s-1.3-0.6-1.3-1.3   V34.6h-1.9V54c0,0.7-0.6,1.3-1.3,1.3S51,54.7,51,54V34.6H49V54c0,0.7-0.6,1.3-1.3,1.3c-0.7,0-1.3-0.6-1.3-1.3V34.6h-1.9V54   c0,0.7-0.6,1.3-1.3,1.3c-0.7,0-1.3-0.6-1.3-1.3V34.6h-0.9c-0.5,0-1-0.3-1.2-0.8l-2.4-5.3c-0.2-0.4-0.2-0.9,0.1-1.3   c0.2-0.4,0.7-0.6,1.1-0.6h23.2c0.5,0,0.9,0.2,1.1,0.6C63,27.6,63.1,28.1,62.9,28.5z"
       id="path1"
       style="fill:#44aa00" /></g><path
     style="fill:#44aa00;stroke-width:0.161708"
     d="M 43.932081,87.178152 37.900678,79.757338 36.495616,79.232975 C 35.722833,78.944576 34.072214,78.194842 32.827574,77.566898 22.298764,72.254922 15.010108,62.738262 12.556709,51.099612 11.452573,45.861711 11.599016,39.48593 12.944843,34.201164 16.571536,19.95995 28.036541,8.989249 42.334243,6.0788655 c 2.739575,-0.5576569 4.676606,-0.7425136 7.780468,-0.7425136 18.902957,0 34.758415,13.7997631 37.716699,32.8266491 0.356098,2.290332 0.405443,8.06562 0.08774,10.268435 -1.114806,7.729445 -4.09804,14.394062 -8.988415,20.080328 -4.061294,4.722258 -9.716976,8.700134 -15.267562,10.738314 l -1.505008,0.552639 -6.059856,7.398124 c -3.33292,4.068968 -6.076722,7.398124 -6.097338,7.398124 -0.02061,0 -2.751614,-3.339366 -6.068886,-7.420813 z M 58.729875,59.156806 c 0.264724,-0.248696 0.374265,-0.53267 0.374265,-0.970246 0,-0.74248 -0.400953,-1.205952 -1.163361,-1.344762 -0.294013,-0.05353 -4.05199,-0.07578 -8.35106,-0.04945 l -7.816491,0.04788 -0.40674,0.472975 c -0.327662,0.381021 -0.388757,0.585377 -0.314237,1.0511 0.190841,1.192691 -0.193258,1.144101 9.04418,1.144101 8.257334,0 8.259263,-7.9e-5 8.633444,-0.351603 z M 44.215301,54.877933 c 0.330794,-0.420536 0.335152,-0.555098 0.335152,-10.349288 v -9.923212 h 0.889392 0.889392 v 9.923212 c 0,9.79419 0.0044,9.928752 0.335152,10.349288 0.459295,0.583899 1.447927,0.598191 2.016958,0.02916 l 0.396919,-0.396918 v -9.952371 -9.952369 h 0.885777 0.885774 l 0.04404,9.959085 0.04404,9.959083 0.453713,0.390206 c 0.602285,0.517978 1.633752,0.536381 2.163614,0.0386 l 0.374264,-0.351604 V 44.60312 34.605434 h 0.889392 0.889392 v 9.952369 9.952371 l 0.39692,0.396918 c 0.569031,0.569033 1.557663,0.554741 2.016958,-0.02916 0.330794,-0.420536 0.335152,-0.555098 0.335152,-10.349288 v -9.923212 h 0.709771 c 0.44406,0 0.831727,-0.105939 1.035546,-0.282988 0.179177,-0.155644 0.918394,-1.610091 1.642702,-3.232104 1.128042,-2.52613 1.301535,-3.031154 1.209622,-3.521098 -0.207657,-1.106901 0.500341,-1.049191 -12.871693,-1.049191 H 38.100183 l -0.445922,0.383565 c -0.33401,0.287303 -0.441399,0.520659 -0.427895,0.929819 0.02121,0.642584 2.517122,6.273477 2.912117,6.569863 0.148162,0.111174 0.582935,0.202134 0.966163,0.202134 h 0.696777 v 9.952369 9.952371 l 0.396919,0.396918 c 0.569032,0.569033 1.557664,0.554741 2.016959,-0.02916 z"
     id="path2" /></svg>
