<svg width="50" height="50" viewBox="0 0 50 50" fill="none" xmlns="http://www.w3.org/2000/svg">
<rect x="8" y="8" width="34" height="34" rx="17" fill="#DC3545"/>
<mask id="mask0_128_276" style="mask-type:alpha" maskUnits="userSpaceOnUse" x="13" y="13" width="24" height="24">
<rect x="13" y="13" width="24" height="24" fill="#D9D9D9"/>
</mask>
<g mask="url(#mask0_128_276)">
<path d="M17 35V30C18.35 28.9167 19.3667 27.7417 20.05 26.475C20.7333 25.2083 21.2167 24.05 21.5 23H21C20.45 23 19.9792 22.8042 19.5875 22.4125C19.1958 22.0208 19 21.55 19 21V15H24V18H26V15H31V21C31 21.55 30.8042 22.0208 30.4125 22.4125C30.0208 22.8042 29.55 23 29 23H28.475C28.7583 24.05 29.2417 25.2083 29.925 26.475C30.6083 27.7417 31.6333 28.9167 33 30V35H17ZM19 33H31V30.925C29.5667 29.625 28.5125 28.2625 27.8375 26.8375C27.1625 25.4125 26.6833 24.1333 26.4 23H23.575C23.3083 24.1333 22.8333 25.4125 22.15 26.8375C21.4667 28.2625 20.4167 29.625 19 30.925V33ZM21 21H29V17H28V20H22V17H21V21Z" fill="white"/>
</g>
</svg>
