<svg width="50" height="50" viewBox="0 0 50 50" fill="none" xmlns="http://www.w3.org/2000/svg">
<rect x="8" y="8" width="34" height="34" rx="17" fill="#28A745"/>
<mask id="mask0_128_275" style="mask-type:alpha" maskUnits="userSpaceOnUse" x="13" y="13" width="24" height="24">
<rect x="13" y="13" width="24" height="24" fill="#D9D9D9"/>
</mask>
<g mask="url(#mask0_128_275)">
<path d="M25 25C25.55 25 26.0208 24.8042 26.4125 24.4125C26.8042 24.0208 27 23.55 27 23C27 22.45 26.8042 21.9792 26.4125 21.5875C26.0208 21.1958 25.55 21 25 21C24.45 21 23.9792 21.1958 23.5875 21.5875C23.1958 21.9792 23 22.45 23 23C23 23.55 23.1958 24.0208 23.5875 24.4125C23.9792 24.8042 24.45 25 25 25ZM25 32.35C27.0333 30.4833 28.5417 28.7875 29.525 27.2625C30.5083 25.7375 31 24.3833 31 23.2C31 21.3833 30.4208 19.8958 29.2625 18.7375C28.1042 17.5792 26.6833 17 25 17C23.3167 17 21.8958 17.5792 20.7375 18.7375C19.5792 19.8958 19 21.3833 19 23.2C19 24.3833 19.4917 25.7375 20.475 27.2625C21.4583 28.7875 22.9667 30.4833 25 32.35ZM25 35C22.3167 32.7167 20.3125 30.5958 18.9875 28.6375C17.6625 26.6792 17 24.8667 17 23.2C17 20.7 17.8042 18.7083 19.4125 17.225C21.0208 15.7417 22.8833 15 25 15C27.1167 15 28.9792 15.7417 30.5875 17.225C32.1958 18.7083 33 20.7 33 23.2C33 24.8667 32.3375 26.6792 31.0125 28.6375C29.6875 30.5958 27.6833 32.7167 25 35Z" fill="white"/>
</g>
</svg>
