<svg width="64" height="64" viewBox="0 0 64 64" fill="none" xmlns="http://www.w3.org/2000/svg">
<rect width="64" height="64" rx="10" fill="white"/>
<path opacity="0.3" d="M31.7945 59C36.6308 59 40.5513 57.6932 40.5513 56.0811C40.5513 54.469 36.6308 53.1622 31.7945 53.1622C26.9583 53.1622 23.0378 54.469 23.0378 56.0811C23.0378 57.6932 26.9583 59 31.7945 59Z" fill="#2E5AAC"/>
<path d="M31.7945 37.8378C45.9002 37.8378 57.335 34.5707 57.335 30.5406C57.335 26.5104 45.9002 23.2433 31.7945 23.2433C17.6889 23.2433 6.25397 26.5104 6.25397 30.5406C6.25397 34.5707 17.6889 37.8378 31.7945 37.8378Z" stroke="#2E5AAC" stroke-width="2.5"/>
<path d="M31.7945 56.0811C45.9002 56.0811 57.335 44.6462 57.335 30.5405C57.335 16.4349 45.9002 5 31.7945 5C17.6889 5 6.25397 16.4349 6.25397 30.5405C6.25397 44.6462 17.6889 56.0811 31.7945 56.0811Z" stroke="#2E5AAC" stroke-width="2.5"/>
<path d="M31.7945 56.0811C35.8247 56.0811 39.0918 44.6462 39.0918 30.5405C39.0918 16.4349 35.8247 5 31.7945 5C27.7643 5 24.4972 16.4349 24.4972 30.5405C24.4972 44.6462 27.7643 56.0811 31.7945 56.0811Z" stroke="#2E5AAC" stroke-width="2"/>
<path d="M36.1592 40.5786C50.2037 34.4719 59.6349 25.0272 57.2243 19.4833C54.8138 13.9395 41.4743 14.3957 27.4298 20.5025C13.3853 26.6092 3.95414 36.0539 6.36469 41.5978C8.77523 47.1416 22.1147 46.6854 36.1592 40.5786Z" stroke="#2E5AAC" stroke-width="2"/>
<path d="M31.7945 39.2973C36.6308 39.2973 40.5513 35.3767 40.5513 30.5405C40.5513 25.7043 36.6308 21.7838 31.7945 21.7838C26.9583 21.7838 23.0378 25.7043 23.0378 30.5405C23.0378 35.3767 26.9583 39.2973 31.7945 39.2973Z" fill="#2E5AAC" stroke="#2E5AAC" stroke-width="2"/>
<path d="M29.5801 31.3455C28.85 31.3455 28.1288 31.5054 27.4671 31.814C26.8054 32.1225 26.2193 32.5722 25.75 33.1315V27.8707C26.2193 28.43 26.8054 28.8797 27.4671 29.1883C28.1288 29.4968 28.85 29.6567 29.5801 29.6567H30.9067V28.3301C30.9067 27.6 30.7468 26.8788 30.4383 26.2171C30.1297 25.5554 29.68 24.9693 29.1207 24.5H34.3815C33.8222 24.9693 33.3725 25.5554 33.064 26.2171C32.7554 26.8788 32.5955 27.6 32.5955 28.3301V29.6567H33.9199C34.65 29.6567 35.3712 29.4968 36.0329 29.1883C36.6946 28.8797 37.2807 28.43 37.75 27.8707V33.1315C37.2807 32.5722 36.6946 32.1225 36.0329 31.814C35.3712 31.5054 34.65 31.3455 33.9199 31.3455H32.5955V32.6699C32.5955 33.4 32.7554 34.1212 33.064 34.7829C33.3725 35.4446 33.8222 36.0307 34.3815 36.5H29.1207C29.68 36.0307 30.1297 35.4446 30.4383 34.7829C30.7468 34.1212 30.9067 33.4 30.9067 32.6699V31.3455H29.5801Z" fill="white"/>
</svg>
