<svg width="96" height="82" viewBox="0 0 96 82" fill="none" xmlns="http://www.w3.org/2000/svg">
<path opacity="0.3" d="M47.7946 55.25C52.6308 55.25 56.5514 53.9432 56.5514 52.3311C56.5514 50.719 52.6308 49.4122 47.7946 49.4122C42.9584 49.4122 39.0378 50.719 39.0378 52.3311C39.0378 53.9432 42.9584 55.25 47.7946 55.25Z" fill="#2E5AAC"/>
<path d="M47.7944 34.0878C61.9001 34.0878 73.335 30.8207 73.335 26.7906C73.335 22.7604 61.9001 19.4933 47.7944 19.4933C33.6888 19.4933 22.2539 22.7604 22.2539 26.7906C22.2539 30.8207 33.6888 34.0878 47.7944 34.0878Z" stroke="#2E5AAC" stroke-width="2.5"/>
<path d="M47.7944 52.3311C61.9001 52.3311 73.335 40.8962 73.335 26.7905C73.335 12.6849 61.9001 1.25 47.7944 1.25C33.6888 1.25 22.2539 12.6849 22.2539 26.7905C22.2539 40.8962 33.6888 52.3311 47.7944 52.3311Z" stroke="#2E5AAC" stroke-width="2.5"/>
<path d="M47.7945 52.3311C51.8247 52.3311 55.0918 40.8962 55.0918 26.7905C55.0918 12.6849 51.8247 1.25 47.7945 1.25C43.7643 1.25 40.4972 12.6849 40.4972 26.7905C40.4972 40.8962 43.7643 52.3311 47.7945 52.3311Z" stroke="#2E5AAC" stroke-width="2"/>
<path d="M52.1592 36.8286C66.2037 30.7219 75.6349 21.2772 73.2243 15.7333C70.8138 10.1895 57.4743 10.6457 43.4298 16.7525C29.3853 22.8592 19.9541 32.3039 22.3647 37.8478C24.7752 43.3916 38.1147 42.9354 52.1592 36.8286Z" stroke="#2E5AAC" stroke-width="2"/>
<path d="M47.7946 35.5473C52.6308 35.5473 56.5514 31.6267 56.5514 26.7905C56.5514 21.9543 52.6308 18.0338 47.7946 18.0338C42.9584 18.0338 39.0378 21.9543 39.0378 26.7905C39.0378 31.6267 42.9584 35.5473 47.7946 35.5473Z" fill="#2E5AAC" stroke="#2E5AAC" stroke-width="2"/>
<path d="M45.5801 27.5955C44.85 27.5955 44.1288 27.7554 43.4671 28.064C42.8054 28.3725 42.2193 28.8222 41.75 29.3815V24.1207C42.2193 24.68 42.8054 25.1297 43.4671 25.4383C44.1288 25.7468 44.85 25.9067 45.5801 25.9067H46.9067V24.5801C46.9067 23.85 46.7468 23.1288 46.4383 22.4671C46.1297 21.8054 45.68 21.2193 45.1207 20.75H50.3815C49.8222 21.2193 49.3725 21.8054 49.064 22.4671C48.7554 23.1288 48.5955 23.85 48.5955 24.5801V25.9067H49.9199C50.65 25.9067 51.3712 25.7468 52.0329 25.4383C52.6946 25.1297 53.2807 24.68 53.75 24.1207V29.3815C53.2807 28.8222 52.6946 28.3725 52.0329 28.064C51.3712 27.7554 50.65 27.5955 49.9199 27.5955H48.5955V28.9199C48.5955 29.65 48.7554 30.3712 49.064 31.0329C49.3725 31.6946 49.8222 32.2807 50.3815 32.75H45.1207C45.68 32.2807 46.1297 31.6946 46.4383 31.0329C46.7468 30.3712 46.9067 29.65 46.9067 28.9199V27.5955H45.5801Z" fill="white"/>
<path d="M21.9094 74.6953L21.6906 78.25H11.4797V77.6406C11.662 77.625 11.8755 77.6016 12.1203 77.5703C12.3651 77.5339 12.5266 77.5 12.6047 77.4688C12.7922 77.3958 12.9224 77.2943 12.9953 77.1641C13.0682 77.0339 13.1047 76.8672 13.1047 76.6641V68.8438C13.1047 68.6562 13.076 68.5026 13.0188 68.3828C12.9615 68.2578 12.8234 68.1458 12.6047 68.0469C12.4432 67.974 12.2479 67.9167 12.0188 67.875C11.7948 67.8281 11.6151 67.7943 11.4797 67.7734V67.1641H17.5656V67.7734C17.399 67.7891 17.201 67.8125 16.9719 67.8438C16.7479 67.8698 16.5526 67.9089 16.3859 67.9609C16.1828 68.0286 16.0474 68.1354 15.9797 68.2812C15.912 68.4219 15.8781 68.5833 15.8781 68.7656V76.0547C15.8781 76.3984 15.9016 76.6693 15.9484 76.8672C15.9953 77.0651 16.0865 77.2109 16.2219 77.3047C16.3573 77.4036 16.5448 77.4688 16.7844 77.5C17.0292 77.526 17.3651 77.5391 17.7922 77.5391C18.2089 77.5391 18.6125 77.5156 19.0031 77.4688C19.399 77.4167 19.6828 77.3073 19.8547 77.1406C20.1203 76.875 20.3911 76.5026 20.6672 76.0234C20.9484 75.5391 21.1724 75.0964 21.3391 74.6953H21.9094ZM33.3578 78.0859L29.6313 78.3125L29.5141 78.2031V77.1797H29.4672C29.2901 77.3411 29.1156 77.5 28.9438 77.6562C28.7771 77.8073 28.5766 77.9453 28.3422 78.0703C28.0766 78.2109 27.824 78.3151 27.5844 78.3828C27.35 78.4505 27.0063 78.4844 26.5531 78.4844C25.7667 78.4844 25.1625 78.2474 24.7406 77.7734C24.324 77.2995 24.1156 76.6302 24.1156 75.7656V72.25C24.1156 72.0469 24.0766 71.8828 23.9984 71.7578C23.9203 71.6276 23.8161 71.513 23.6859 71.4141C23.5818 71.3359 23.4464 71.2812 23.2797 71.25C23.113 71.2135 22.962 71.1901 22.8266 71.1797V70.6094L26.6156 70.4062L26.7016 70.5234V75.7188C26.7016 76.2552 26.8031 76.651 27.0063 76.9062C27.2146 77.1615 27.4984 77.2891 27.8578 77.2891C28.2276 77.2891 28.5583 77.1927 28.85 77C29.1469 76.8073 29.363 76.6016 29.4984 76.3828V72.1719C29.4984 71.9948 29.4646 71.8359 29.3969 71.6953C29.3292 71.5547 29.2302 71.4401 29.1 71.3516C29.0063 71.2891 28.8708 71.2474 28.6938 71.2266C28.5219 71.2057 28.3448 71.1901 28.1625 71.1797V70.6094L31.9516 70.4062L32.0688 70.5234V76.5547C32.0688 76.737 32.1052 76.8932 32.1781 77.0234C32.251 77.1484 32.3578 77.2552 32.4984 77.3438C32.5974 77.4062 32.725 77.4505 32.8813 77.4766C33.0427 77.4974 33.2016 77.5104 33.3578 77.5156V78.0859ZM38.4078 78.5156C37.9026 78.5156 37.4078 78.4401 36.9234 78.2891C36.4443 78.1432 36.0719 77.987 35.8062 77.8203L35.5719 78.3516H34.9625L34.8609 75.4375H35.4312C35.5094 75.6719 35.6396 75.9375 35.8219 76.2344C36.0042 76.526 36.2125 76.7891 36.4469 77.0234C36.6917 77.2578 36.9703 77.4557 37.2828 77.6172C37.6005 77.7786 37.9391 77.8594 38.2984 77.8594C38.7724 77.8594 39.124 77.7682 39.3531 77.5859C39.5875 77.3984 39.7047 77.112 39.7047 76.7266C39.7047 76.5182 39.6526 76.3464 39.5484 76.2109C39.4443 76.0755 39.301 75.9583 39.1187 75.8594C38.9156 75.7552 38.6917 75.6667 38.4469 75.5938C38.2073 75.5208 37.9104 75.4323 37.5562 75.3281C37.2021 75.224 36.8974 75.1198 36.6422 75.0156C36.3922 74.9062 36.1318 74.737 35.8609 74.5078C35.6266 74.3047 35.4391 74.0599 35.2984 73.7734C35.1578 73.487 35.0875 73.1458 35.0875 72.75C35.0875 72.0156 35.3948 71.4219 36.0094 70.9688C36.6292 70.5156 37.4391 70.2891 38.4391 70.2891C38.913 70.2891 39.3479 70.3385 39.7437 70.4375C40.1448 70.5312 40.4807 70.6354 40.7516 70.75L40.9156 70.2891H41.5094L41.6344 72.9531H41.0797C40.8974 72.4115 40.5849 71.9453 40.1422 71.5547C39.6995 71.1589 39.2229 70.9609 38.7125 70.9609C38.3115 70.9609 37.9964 71.0443 37.7672 71.2109C37.538 71.3776 37.4234 71.6094 37.4234 71.9062C37.4234 72.3021 37.5901 72.5885 37.9234 72.7656C38.262 72.9427 38.7333 73.1094 39.3375 73.2656C40.2698 73.5052 40.9521 73.8333 41.3844 74.25C41.8167 74.6615 42.0328 75.1875 42.0328 75.8281C42.0328 76.6823 41.6969 77.3438 41.025 77.8125C40.3583 78.2812 39.4859 78.5156 38.4078 78.5156ZM48.7313 78.25H43.7938V77.6797C43.9292 77.6693 44.062 77.6562 44.1922 77.6406C44.3224 77.625 44.4344 77.599 44.5281 77.5625C44.6948 77.5 44.812 77.4115 44.8797 77.2969C44.9474 77.1771 44.9813 77.0208 44.9813 76.8281V72.2812C44.9813 72.099 44.9396 71.9401 44.8563 71.8047C44.7729 71.6641 44.6688 71.5521 44.5438 71.4688C44.45 71.4062 44.3068 71.3464 44.1141 71.2891C43.9266 71.2318 43.7547 71.1953 43.5984 71.1797V70.6094L47.4266 70.4062L47.5438 70.5234V76.7266C47.5438 76.9089 47.5828 77.0651 47.6609 77.1953C47.7391 77.3203 47.851 77.4141 47.9969 77.4766C48.101 77.5234 48.2156 77.5651 48.3406 77.6016C48.4656 77.638 48.5958 77.6641 48.7313 77.6797V78.25ZM47.5906 67.5938C47.5906 67.9896 47.437 68.3281 47.1297 68.6094C46.8276 68.8854 46.4682 69.0234 46.0516 69.0234C45.6297 69.0234 45.2651 68.8854 44.9578 68.6094C44.6557 68.3281 44.5047 67.9896 44.5047 67.5938C44.5047 67.1979 44.6557 66.8594 44.9578 66.5781C45.2651 66.2969 45.6297 66.1562 46.0516 66.1562C46.4734 66.1562 46.8354 66.2969 47.1375 66.5781C47.4396 66.8594 47.5906 67.1979 47.5906 67.5938ZM56.0625 77.8906C55.7292 78.0365 55.3724 78.1667 54.9922 78.2812C54.612 78.401 54.1484 78.4609 53.6016 78.4609C52.7891 78.4609 52.1849 78.263 51.7891 77.8672C51.3984 77.4714 51.2031 76.9062 51.2031 76.1719V71.375H49.7969V70.5312H51.2344V68.1641H53.7734V70.5312H55.9609V71.375H53.7891V75.6562C53.7891 76.2656 53.8724 76.6979 54.0391 76.9531C54.2109 77.2083 54.5156 77.3359 54.9531 77.3359C55.0938 77.3359 55.2891 77.3255 55.5391 77.3047C55.7891 77.2839 55.9635 77.2604 56.0625 77.2344V77.8906ZM66.3391 78.0859C66.1099 78.1849 65.8391 78.276 65.5266 78.3594C65.2141 78.4427 64.8833 78.4844 64.5344 78.4844C63.8937 78.4844 63.4224 78.3906 63.1203 78.2031C62.8182 78.0104 62.6125 77.737 62.5031 77.3828H62.4562C62.2792 77.5599 62.1073 77.7109 61.9406 77.8359C61.7792 77.9609 61.6047 78.0677 61.4172 78.1562C61.1724 78.2708 60.9354 78.3542 60.7062 78.4062C60.4823 78.4635 60.1672 78.4922 59.7609 78.4922C59.1568 78.4922 58.6411 78.3151 58.2141 77.9609C57.787 77.6016 57.5734 77.1276 57.5734 76.5391C57.5734 76.2005 57.6203 75.9141 57.7141 75.6797C57.8078 75.4401 57.9406 75.2292 58.1125 75.0469C58.2687 74.8802 58.4484 74.7422 58.6516 74.6328C58.8599 74.5234 59.0865 74.4219 59.3312 74.3281C59.8 74.1562 60.3625 73.9792 61.0187 73.7969C61.675 73.6094 62.1542 73.4427 62.4562 73.2969V72.5469C62.4562 72.4167 62.4458 72.2448 62.425 72.0312C62.4042 71.8177 62.3599 71.638 62.2922 71.4922C62.2193 71.3255 62.1047 71.1849 61.9484 71.0703C61.7922 70.9557 61.5865 70.8984 61.3312 70.8984C61.1021 70.8984 60.9094 70.9323 60.7531 71C60.6021 71.0625 60.4797 71.1276 60.3859 71.1953C60.4016 71.2995 60.4458 71.4583 60.5187 71.6719C60.5917 71.8854 60.6281 72.0911 60.6281 72.2891C60.6281 72.3776 60.6047 72.4896 60.5578 72.625C60.5109 72.7552 60.4432 72.8594 60.3547 72.9375C60.2349 73.0417 60.0995 73.1224 59.9484 73.1797C59.8026 73.237 59.576 73.2656 59.2687 73.2656C58.8312 73.2656 58.5005 73.1615 58.2766 72.9531C58.0526 72.7396 57.9406 72.4635 57.9406 72.125C57.9406 71.8333 58.0552 71.5729 58.2844 71.3438C58.5187 71.1094 58.8026 70.9167 59.1359 70.7656C59.4641 70.6094 59.8417 70.4896 60.2687 70.4062C60.6958 70.3177 61.0917 70.2734 61.4562 70.2734C61.9615 70.2734 62.425 70.3047 62.8469 70.3672C63.2687 70.4245 63.649 70.5469 63.9875 70.7344C64.3104 70.9167 64.5656 71.1823 64.7531 71.5312C64.9458 71.875 65.0422 72.3255 65.0422 72.8828C65.0422 73.4714 65.0292 74.1693 65.0031 74.9766C64.9823 75.7839 64.9719 76.3151 64.9719 76.5703C64.9719 76.8047 65.0057 76.9896 65.0734 77.125C65.1464 77.2604 65.2557 77.362 65.4016 77.4297C65.4901 77.4714 65.6281 77.4974 65.8156 77.5078C66.0083 77.513 66.1828 77.5156 66.3391 77.5156V78.0859ZM62.4562 74.0156C62.1646 74.1146 61.8755 74.2292 61.5891 74.3594C61.3026 74.4844 61.0682 74.6172 60.8859 74.7578C60.6932 74.9036 60.5422 75.0911 60.4328 75.3203C60.3234 75.5443 60.2687 75.8099 60.2687 76.1172C60.2687 76.5234 60.3599 76.8177 60.5422 77C60.7297 77.1823 60.9589 77.2734 61.2297 77.2734C61.5161 77.2734 61.7505 77.2161 61.9328 77.1016C62.1203 76.9818 62.2844 76.8359 62.425 76.6641L62.4562 74.0156ZM64.4797 69.4062L64.0578 69.6328L61.5578 67.6484L59.0891 69.6328L58.6906 69.4062C59.2115 68.5677 59.5734 67.9844 59.7766 67.6562C59.9797 67.3281 60.2193 66.987 60.4953 66.6328C60.6151 66.4714 60.7557 66.3516 60.9172 66.2734C61.0839 66.1953 61.3078 66.1562 61.5891 66.1562C61.8755 66.1562 62.0891 66.1927 62.2297 66.2656C62.3703 66.3385 62.5031 66.4505 62.6281 66.6016C62.8729 66.8984 63.1333 67.2656 63.4094 67.7031C63.6906 68.1406 64.0474 68.7083 64.4797 69.4062ZM78.0531 78.25H73.35V77.6797C73.449 77.6693 73.5687 77.6562 73.7094 77.6406C73.85 77.625 73.9568 77.599 74.0297 77.5625C74.1391 77.5052 74.2172 77.4219 74.2641 77.3125C74.3109 77.2031 74.3344 77.0417 74.3344 76.8281V73.1719C74.3344 72.6406 74.2354 72.2422 74.0375 71.9766C73.8448 71.7057 73.5583 71.5703 73.1781 71.5703C72.9698 71.5703 72.7745 71.6016 72.5922 71.6641C72.4151 71.7266 72.2406 71.8177 72.0687 71.9375C71.9177 72.0417 71.7953 72.1484 71.7016 72.2578C71.613 72.3672 71.5375 72.4635 71.475 72.5469V76.7422C71.475 76.9245 71.501 77.0781 71.5531 77.2031C71.6052 77.3229 71.6911 77.4141 71.8109 77.4766C71.8943 77.5234 71.9984 77.5651 72.1234 77.6016C72.2484 77.638 72.3708 77.6641 72.4906 77.6797V78.25H67.7406V77.6797C67.8708 77.6693 68.001 77.6562 68.1312 77.6406C68.2667 77.6198 68.3812 77.5938 68.475 77.5625C68.6417 77.5052 68.7562 77.4167 68.8187 77.2969C68.8812 77.1771 68.9125 77.0208 68.9125 76.8281V72.2812C68.9125 72.1198 68.8708 71.9609 68.7875 71.8047C68.7042 71.6484 68.5948 71.5208 68.4594 71.4219C68.3656 71.3594 68.2458 71.3073 68.1 71.2656C67.9594 71.224 67.8031 71.1953 67.6312 71.1797V70.6094L71.3578 70.4062L71.475 70.5234V71.6562H71.5062C71.6521 71.526 71.8292 71.3698 72.0375 71.1875C72.2458 71.0052 72.4385 70.8568 72.6156 70.7422C72.8083 70.6172 73.0609 70.5104 73.3734 70.4219C73.6859 70.3333 74.0193 70.2891 74.3734 70.2891C75.2224 70.2891 75.8578 70.5312 76.2797 71.0156C76.7068 71.4948 76.9203 72.1328 76.9203 72.9297V76.7578C76.9203 76.9505 76.949 77.1042 77.0062 77.2188C77.0635 77.3333 77.1703 77.4245 77.3266 77.4922C77.4099 77.5286 77.5115 77.5651 77.6312 77.6016C77.7562 77.638 77.8969 77.6641 78.0531 77.6797V78.25ZM84.525 78.25H79.5875V77.6797C79.7229 77.6693 79.8557 77.6562 79.9859 77.6406C80.1161 77.625 80.2281 77.599 80.3219 77.5625C80.4885 77.5 80.6057 77.4115 80.6734 77.2969C80.7411 77.1771 80.775 77.0208 80.775 76.8281V72.2812C80.775 72.099 80.7333 71.9401 80.65 71.8047C80.5667 71.6641 80.4625 71.5521 80.3375 71.4688C80.2438 71.4062 80.1005 71.3464 79.9078 71.2891C79.7203 71.2318 79.5484 71.1953 79.3922 71.1797V70.6094L83.2203 70.4062L83.3375 70.5234V76.7266C83.3375 76.9089 83.3766 77.0651 83.4547 77.1953C83.5328 77.3203 83.6448 77.4141 83.7906 77.4766C83.8948 77.5234 84.0094 77.5651 84.1344 77.6016C84.2594 77.638 84.3896 77.6641 84.525 77.6797V78.25ZM83.3844 67.5938C83.3844 67.9896 83.2307 68.3281 82.9234 68.6094C82.6214 68.8854 82.262 69.0234 81.8453 69.0234C81.4234 69.0234 81.0589 68.8854 80.7516 68.6094C80.4495 68.3281 80.2984 67.9896 80.2984 67.5938C80.2984 67.1979 80.4495 66.8594 80.7516 66.5781C81.0589 66.2969 81.4234 66.1562 81.8453 66.1562C82.2672 66.1562 82.6292 66.2969 82.9313 66.5781C83.2333 66.8594 83.3844 67.1979 83.3844 67.5938ZM94.9734 78.0859C94.7443 78.1849 94.4734 78.276 94.1609 78.3594C93.8484 78.4427 93.5177 78.4844 93.1687 78.4844C92.5281 78.4844 92.0568 78.3906 91.7547 78.2031C91.4526 78.0104 91.2469 77.737 91.1375 77.3828H91.0906C90.9135 77.5599 90.7417 77.7109 90.575 77.8359C90.4135 77.9609 90.2391 78.0677 90.0516 78.1562C89.8068 78.2708 89.5698 78.3542 89.3406 78.4062C89.1167 78.4635 88.8016 78.4922 88.3953 78.4922C87.7911 78.4922 87.2755 78.3151 86.8484 77.9609C86.4214 77.6016 86.2078 77.1276 86.2078 76.5391C86.2078 76.2005 86.2547 75.9141 86.3484 75.6797C86.4422 75.4401 86.575 75.2292 86.7469 75.0469C86.9031 74.8802 87.0828 74.7422 87.2859 74.6328C87.4943 74.5234 87.7208 74.4219 87.9656 74.3281C88.4344 74.1562 88.9969 73.9792 89.6531 73.7969C90.3094 73.6094 90.7885 73.4427 91.0906 73.2969V72.5469C91.0906 72.4167 91.0802 72.2448 91.0594 72.0312C91.0385 71.8177 90.9943 71.638 90.9266 71.4922C90.8536 71.3255 90.7391 71.1849 90.5828 71.0703C90.4266 70.9557 90.2208 70.8984 89.9656 70.8984C89.7365 70.8984 89.5437 70.9323 89.3875 71C89.2365 71.0625 89.1141 71.1276 89.0203 71.1953C89.0359 71.2995 89.0802 71.4583 89.1531 71.6719C89.226 71.8854 89.2625 72.0911 89.2625 72.2891C89.2625 72.3776 89.2391 72.4896 89.1922 72.625C89.1453 72.7552 89.0776 72.8594 88.9891 72.9375C88.8693 73.0417 88.7339 73.1224 88.5828 73.1797C88.437 73.237 88.2104 73.2656 87.9031 73.2656C87.4656 73.2656 87.1349 73.1615 86.9109 72.9531C86.687 72.7396 86.575 72.4635 86.575 72.125C86.575 71.8333 86.6896 71.5729 86.9187 71.3438C87.1531 71.1094 87.437 70.9167 87.7703 70.7656C88.0984 70.6094 88.476 70.4896 88.9031 70.4062C89.3302 70.3177 89.726 70.2734 90.0906 70.2734C90.5958 70.2734 91.0594 70.3047 91.4812 70.3672C91.9031 70.4245 92.2833 70.5469 92.6219 70.7344C92.9448 70.9167 93.2 71.1823 93.3875 71.5312C93.5802 71.875 93.6766 72.3255 93.6766 72.8828C93.6766 73.4714 93.6635 74.1693 93.6375 74.9766C93.6167 75.7839 93.6062 76.3151 93.6062 76.5703C93.6062 76.8047 93.6401 76.9896 93.7078 77.125C93.7807 77.2604 93.8901 77.362 94.0359 77.4297C94.1245 77.4714 94.2625 77.4974 94.45 77.5078C94.6427 77.513 94.8172 77.5156 94.9734 77.5156V78.0859ZM91.0906 74.0156C90.799 74.1146 90.5099 74.2292 90.2234 74.3594C89.937 74.4844 89.7026 74.6172 89.5203 74.7578C89.3276 74.9036 89.1766 75.0911 89.0672 75.3203C88.9578 75.5443 88.9031 75.8099 88.9031 76.1172C88.9031 76.5234 88.9943 76.8177 89.1766 77C89.3641 77.1823 89.5932 77.2734 89.8641 77.2734C90.1505 77.2734 90.3849 77.2161 90.5672 77.1016C90.7547 76.9818 90.9187 76.8359 91.0594 76.6641L91.0906 74.0156Z" fill="#2E5AAC"/>
<path d="M10.3359 73.3984H6.64062V77.0938H5.35156V73.3984H1.65625V72.125H5.35156V68.4297H6.64062V72.125H10.3359V73.3984Z" fill="#2E5AAC"/>
</svg>
