<svg width="205" height="56" viewBox="0 0 205 56" fill="none" xmlns="http://www.w3.org/2000/svg">
<path opacity="0.3" d="M29.7945 55.25C34.6307 55.25 38.5512 53.9432 38.5512 52.3311C38.5512 50.719 34.6307 49.4122 29.7945 49.4122C24.9583 49.4122 21.0377 50.719 21.0377 52.3311C21.0377 53.9432 24.9583 55.25 29.7945 55.25Z" fill="#2E5AAC"/>
<path d="M29.7944 34.0878C43.9001 34.0878 55.335 30.8207 55.335 26.7905C55.335 22.7603 43.9001 19.4932 29.7944 19.4932C15.6888 19.4932 4.25391 22.7603 4.25391 26.7905C4.25391 30.8207 15.6888 34.0878 29.7944 34.0878Z" stroke="#2E5AAC" stroke-width="2.5"/>
<path d="M29.7944 52.3311C43.9001 52.3311 55.335 40.8962 55.335 26.7905C55.335 12.6849 43.9001 1.25 29.7944 1.25C15.6888 1.25 4.25391 12.6849 4.25391 26.7905C4.25391 40.8962 15.6888 52.3311 29.7944 52.3311Z" stroke="#2E5AAC" stroke-width="2.5"/>
<path d="M29.7945 52.3311C33.8247 52.3311 37.0918 40.8962 37.0918 26.7905C37.0918 12.6849 33.8247 1.25 29.7945 1.25C25.7643 1.25 22.4972 12.6849 22.4972 26.7905C22.4972 40.8962 25.7643 52.3311 29.7945 52.3311Z" stroke="#2E5AAC" stroke-width="2"/>
<path d="M34.1592 36.8287C48.2037 30.7219 57.6349 21.2773 55.2243 15.7334C52.8138 10.1895 39.4743 10.6458 25.4298 16.7525C11.3853 22.8592 1.95414 32.3039 4.36469 37.8478C6.77523 43.3917 20.1147 42.9354 34.1592 36.8287Z" stroke="#2E5AAC" stroke-width="2"/>
<path d="M29.7945 35.5473C34.6307 35.5473 38.5512 31.6267 38.5512 26.7905C38.5512 21.9543 34.6307 18.0338 29.7945 18.0338C24.9583 18.0338 21.0377 21.9543 21.0377 26.7905C21.0377 31.6267 24.9583 35.5473 29.7945 35.5473Z" fill="#2E5AAC" stroke="#2E5AAC" stroke-width="2"/>
<path d="M93.8641 29.918L93.5359 35.25H78.2195V34.3359C78.493 34.3125 78.8133 34.2773 79.1805 34.2305C79.5477 34.1758 79.7898 34.125 79.907 34.0781C80.1883 33.9688 80.3836 33.8164 80.493 33.6211C80.6023 33.4258 80.657 33.1758 80.657 32.8711V21.1406C80.657 20.8594 80.6141 20.6289 80.5281 20.4492C80.4422 20.2617 80.2352 20.0938 79.907 19.9453C79.6648 19.8359 79.3719 19.75 79.0281 19.6875C78.6922 19.6172 78.4227 19.5664 78.2195 19.5352V18.6211H87.3484V19.5352C87.0984 19.5586 86.8016 19.5938 86.4578 19.6406C86.1219 19.6797 85.8289 19.7383 85.5789 19.8164C85.2742 19.918 85.0711 20.0781 84.9695 20.2969C84.868 20.5078 84.8172 20.75 84.8172 21.0234V31.957C84.8172 32.4727 84.8523 32.8789 84.9227 33.1758C84.993 33.4727 85.1297 33.6914 85.3328 33.832C85.5359 33.9805 85.8172 34.0781 86.1766 34.125C86.5437 34.1641 87.0477 34.1836 87.6883 34.1836C88.3133 34.1836 88.9187 34.1484 89.5047 34.0781C90.0984 34 90.5242 33.8359 90.782 33.5859C91.1805 33.1875 91.5867 32.6289 92.0008 31.9102C92.4227 31.1836 92.7586 30.5195 93.0086 29.918H93.8641ZM111.037 35.0039L105.447 35.3438L105.271 35.1797V33.6445H105.201C104.935 33.8867 104.673 34.125 104.416 34.3594C104.166 34.5859 103.865 34.793 103.513 34.9805C103.115 35.1914 102.736 35.3477 102.377 35.4492C102.025 35.5508 101.509 35.6016 100.83 35.6016C99.65 35.6016 98.7437 35.2461 98.1109 34.5352C97.4859 33.8242 97.1734 32.8203 97.1734 31.5234V26.25C97.1734 25.9453 97.1148 25.6992 96.9977 25.5117C96.8805 25.3164 96.7242 25.1445 96.5289 24.9961C96.3727 24.8789 96.1695 24.7969 95.9195 24.75C95.6695 24.6953 95.443 24.6602 95.2398 24.6445V23.7891L100.923 23.4844L101.052 23.6602V31.4531C101.052 32.2578 101.205 32.8516 101.509 33.2344C101.822 33.6172 102.248 33.8086 102.787 33.8086C103.341 33.8086 103.837 33.6641 104.275 33.375C104.72 33.0859 105.045 32.7773 105.248 32.4492V26.1328C105.248 25.8672 105.197 25.6289 105.095 25.418C104.994 25.207 104.845 25.0352 104.65 24.9023C104.509 24.8086 104.306 24.7461 104.041 24.7148C103.783 24.6836 103.517 24.6602 103.244 24.6445V23.7891L108.927 23.4844L109.103 23.6602V32.707C109.103 32.9805 109.158 33.2148 109.267 33.4102C109.377 33.5977 109.537 33.7578 109.748 33.8906C109.896 33.9844 110.087 34.0508 110.322 34.0898C110.564 34.1211 110.802 34.1406 111.037 34.1484V35.0039ZM118.612 35.6484C117.854 35.6484 117.112 35.5352 116.385 35.3086C115.666 35.0898 115.108 34.8555 114.709 34.6055L114.358 35.4023H113.444L113.291 31.0312H114.147C114.264 31.3828 114.459 31.7812 114.733 32.2266C115.006 32.6641 115.319 33.0586 115.67 33.4102C116.037 33.7617 116.455 34.0586 116.924 34.3008C117.401 34.543 117.909 34.6641 118.448 34.6641C119.159 34.6641 119.686 34.5273 120.03 34.2539C120.381 33.9727 120.557 33.543 120.557 32.9648C120.557 32.6523 120.479 32.3945 120.323 32.1914C120.166 31.9883 119.952 31.8125 119.678 31.6641C119.373 31.5078 119.037 31.375 118.67 31.2656C118.311 31.1562 117.866 31.0234 117.334 30.8672C116.803 30.7109 116.346 30.5547 115.963 30.3984C115.588 30.2344 115.198 29.9805 114.791 29.6367C114.44 29.332 114.159 28.9648 113.948 28.5352C113.737 28.1055 113.631 27.5938 113.631 27C113.631 25.8984 114.092 25.0078 115.014 24.3281C115.944 23.6484 117.159 23.3086 118.659 23.3086C119.37 23.3086 120.022 23.3828 120.616 23.5312C121.217 23.6719 121.721 23.8281 122.127 24L122.373 23.3086H123.264L123.452 27.3047H122.62C122.346 26.4922 121.877 25.793 121.213 25.207C120.549 24.6133 119.834 24.3164 119.069 24.3164C118.467 24.3164 117.995 24.4414 117.651 24.6914C117.307 24.9414 117.135 25.2891 117.135 25.7344C117.135 26.3281 117.385 26.7578 117.885 27.0234C118.393 27.2891 119.1 27.5391 120.006 27.7734C121.405 28.1328 122.428 28.625 123.077 29.25C123.725 29.8672 124.049 30.6562 124.049 31.6172C124.049 32.8984 123.545 33.8906 122.537 34.5938C121.537 35.2969 120.229 35.6484 118.612 35.6484ZM134.097 35.25H126.691V34.3945C126.894 34.3789 127.093 34.3594 127.288 34.3359C127.484 34.3125 127.652 34.2734 127.792 34.2188C128.042 34.125 128.218 33.9922 128.32 33.8203C128.421 33.6406 128.472 33.4062 128.472 33.1172V26.2969C128.472 26.0234 128.409 25.7852 128.284 25.582C128.159 25.3711 128.003 25.2031 127.816 25.0781C127.675 24.9844 127.46 24.8945 127.171 24.8086C126.89 24.7227 126.632 24.668 126.398 24.6445V23.7891L132.14 23.4844L132.316 23.6602V32.9648C132.316 33.2383 132.374 33.4727 132.491 33.668C132.609 33.8555 132.777 33.9961 132.995 34.0898C133.152 34.1602 133.323 34.2227 133.511 34.2773C133.698 34.332 133.894 34.3711 134.097 34.3945V35.25ZM132.386 19.2656C132.386 19.8594 132.155 20.3672 131.695 20.7891C131.241 21.2031 130.702 21.4102 130.077 21.4102C129.445 21.4102 128.898 21.2031 128.437 20.7891C127.984 20.3672 127.757 19.8594 127.757 19.2656C127.757 18.6719 127.984 18.1641 128.437 17.7422C128.898 17.3203 129.445 17.1094 130.077 17.1094C130.71 17.1094 131.253 17.3203 131.706 17.7422C132.159 18.1641 132.386 18.6719 132.386 19.2656ZM145.094 34.7109C144.594 34.9297 144.059 35.125 143.488 35.2969C142.918 35.4766 142.223 35.5664 141.402 35.5664C140.184 35.5664 139.277 35.2695 138.684 34.6758C138.098 34.082 137.805 33.2344 137.805 32.1328V24.9375H135.695V23.6719H137.852V20.1211H141.66V23.6719H144.941V24.9375H141.684V31.3594C141.684 32.2734 141.809 32.9219 142.059 33.3047C142.316 33.6875 142.773 33.8789 143.43 33.8789C143.641 33.8789 143.934 33.8633 144.309 33.832C144.684 33.8008 144.945 33.7656 145.094 33.7266V34.7109ZM160.509 35.0039C160.165 35.1523 159.759 35.2891 159.29 35.4141C158.821 35.5391 158.325 35.6016 157.802 35.6016C156.841 35.6016 156.134 35.4609 155.68 35.1797C155.227 34.8906 154.919 34.4805 154.755 33.9492H154.684C154.419 34.2148 154.161 34.4414 153.911 34.6289C153.669 34.8164 153.407 34.9766 153.126 35.1094C152.759 35.2812 152.403 35.4062 152.059 35.4844C151.723 35.5703 151.251 35.6133 150.641 35.6133C149.735 35.6133 148.962 35.3477 148.321 34.8164C147.68 34.2773 147.36 33.5664 147.36 32.6836C147.36 32.1758 147.43 31.7461 147.571 31.3945C147.712 31.0352 147.911 30.7188 148.169 30.4453C148.403 30.1953 148.673 29.9883 148.977 29.8242C149.29 29.6602 149.63 29.5078 149.997 29.3672C150.7 29.1094 151.544 28.8438 152.528 28.5703C153.512 28.2891 154.231 28.0391 154.684 27.8203V26.6953C154.684 26.5 154.669 26.2422 154.637 25.9219C154.606 25.6016 154.54 25.332 154.438 25.1133C154.329 24.8633 154.157 24.6523 153.923 24.4805C153.688 24.3086 153.38 24.2227 152.997 24.2227C152.653 24.2227 152.364 24.2734 152.13 24.375C151.903 24.4688 151.72 24.5664 151.579 24.668C151.602 24.8242 151.669 25.0625 151.778 25.3828C151.887 25.7031 151.942 26.0117 151.942 26.3086C151.942 26.4414 151.907 26.6094 151.837 26.8125C151.766 27.0078 151.665 27.1641 151.532 27.2812C151.352 27.4375 151.149 27.5586 150.923 27.6445C150.704 27.7305 150.364 27.7734 149.903 27.7734C149.247 27.7734 148.751 27.6172 148.415 27.3047C148.079 26.9844 147.911 26.5703 147.911 26.0625C147.911 25.625 148.083 25.2344 148.427 24.8906C148.778 24.5391 149.204 24.25 149.704 24.0234C150.196 23.7891 150.762 23.6094 151.403 23.4844C152.044 23.3516 152.637 23.2852 153.184 23.2852C153.942 23.2852 154.637 23.332 155.27 23.4258C155.903 23.5117 156.473 23.6953 156.981 23.9766C157.466 24.25 157.848 24.6484 158.13 25.1719C158.419 25.6875 158.563 26.3633 158.563 27.1992C158.563 28.082 158.544 29.1289 158.505 30.3398C158.473 31.5508 158.458 32.3477 158.458 32.7305C158.458 33.082 158.509 33.3594 158.61 33.5625C158.72 33.7656 158.884 33.918 159.102 34.0195C159.235 34.082 159.442 34.1211 159.723 34.1367C160.012 34.1445 160.274 34.1484 160.509 34.1484V35.0039ZM154.684 28.8984C154.247 29.0469 153.813 29.2188 153.384 29.4141C152.954 29.6016 152.602 29.8008 152.329 30.0117C152.04 30.2305 151.813 30.5117 151.649 30.8555C151.485 31.1914 151.403 31.5898 151.403 32.0508C151.403 32.6602 151.54 33.1016 151.813 33.375C152.095 33.6484 152.438 33.7852 152.845 33.7852C153.274 33.7852 153.626 33.6992 153.899 33.5273C154.18 33.3477 154.427 33.1289 154.637 32.8711L154.684 28.8984ZM157.72 21.9844L157.087 22.3242L153.337 19.3477L149.634 22.3242L149.036 21.9844C149.817 20.7266 150.36 19.8516 150.665 19.3594C150.97 18.8672 151.329 18.3555 151.743 17.8242C151.923 17.582 152.134 17.4023 152.376 17.2852C152.626 17.168 152.962 17.1094 153.384 17.1094C153.813 17.1094 154.134 17.1641 154.345 17.2734C154.555 17.3828 154.755 17.5508 154.942 17.7773C155.309 18.2227 155.7 18.7734 156.114 19.4297C156.536 20.0859 157.071 20.9375 157.72 21.9844ZM178.08 35.25H171.025V34.3945C171.173 34.3789 171.353 34.3594 171.564 34.3359C171.775 34.3125 171.935 34.2734 172.045 34.2188C172.209 34.1328 172.326 34.0078 172.396 33.8438C172.466 33.6797 172.502 33.4375 172.502 33.1172V27.6328C172.502 26.8359 172.353 26.2383 172.056 25.8398C171.767 25.4336 171.338 25.2305 170.767 25.2305C170.455 25.2305 170.162 25.2773 169.888 25.3711C169.623 25.4648 169.361 25.6016 169.103 25.7812C168.877 25.9375 168.693 26.0977 168.552 26.2617C168.42 26.4258 168.306 26.5703 168.213 26.6953V32.9883C168.213 33.2617 168.252 33.4922 168.33 33.6797C168.408 33.8594 168.537 33.9961 168.716 34.0898C168.841 34.1602 168.998 34.2227 169.185 34.2773C169.373 34.332 169.556 34.3711 169.736 34.3945V35.25H162.611V34.3945C162.806 34.3789 163.002 34.3594 163.197 34.3359C163.4 34.3047 163.572 34.2656 163.713 34.2188C163.963 34.1328 164.134 34 164.228 33.8203C164.322 33.6406 164.369 33.4062 164.369 33.1172V26.2969C164.369 26.0547 164.306 25.8164 164.181 25.582C164.056 25.3477 163.892 25.1562 163.689 25.0078C163.548 24.9141 163.369 24.8359 163.15 24.7734C162.939 24.7109 162.705 24.668 162.447 24.6445V23.7891L168.037 23.4844L168.213 23.6602V25.3594H168.259C168.478 25.1641 168.744 24.9297 169.056 24.6562C169.369 24.3828 169.658 24.1602 169.923 23.9883C170.213 23.8008 170.591 23.6406 171.06 23.5078C171.529 23.375 172.029 23.3086 172.56 23.3086C173.834 23.3086 174.787 23.6719 175.42 24.3984C176.06 25.1172 176.38 26.0742 176.38 27.2695V33.0117C176.38 33.3008 176.423 33.5312 176.509 33.7031C176.595 33.875 176.755 34.0117 176.99 34.1133C177.115 34.168 177.267 34.2227 177.447 34.2773C177.634 34.332 177.845 34.3711 178.08 34.3945V35.25ZM187.787 35.25H180.381V34.3945C180.584 34.3789 180.784 34.3594 180.979 34.3359C181.174 34.3125 181.342 34.2734 181.483 34.2188C181.733 34.125 181.909 33.9922 182.01 33.8203C182.112 33.6406 182.162 33.4062 182.162 33.1172V26.2969C182.162 26.0234 182.1 25.7852 181.975 25.582C181.85 25.3711 181.694 25.2031 181.506 25.0781C181.366 24.9844 181.151 24.8945 180.862 24.8086C180.58 24.7227 180.323 24.668 180.088 24.6445V23.7891L185.83 23.4844L186.006 23.6602V32.9648C186.006 33.2383 186.065 33.4727 186.182 33.668C186.299 33.8555 186.467 33.9961 186.686 34.0898C186.842 34.1602 187.014 34.2227 187.202 34.2773C187.389 34.332 187.584 34.3711 187.787 34.3945V35.25ZM186.077 19.2656C186.077 19.8594 185.846 20.3672 185.385 20.7891C184.932 21.2031 184.393 21.4102 183.768 21.4102C183.135 21.4102 182.588 21.2031 182.127 20.7891C181.674 20.3672 181.448 19.8594 181.448 19.2656C181.448 18.6719 181.674 18.1641 182.127 17.7422C182.588 17.3203 183.135 17.1094 183.768 17.1094C184.401 17.1094 184.944 17.3203 185.397 17.7422C185.85 18.1641 186.077 18.6719 186.077 19.2656ZM203.46 35.0039C203.116 35.1523 202.71 35.2891 202.241 35.4141C201.773 35.5391 201.277 35.6016 200.753 35.6016C199.792 35.6016 199.085 35.4609 198.632 35.1797C198.179 34.8906 197.87 34.4805 197.706 33.9492H197.636C197.37 34.2148 197.113 34.4414 196.863 34.6289C196.62 34.8164 196.359 34.9766 196.077 35.1094C195.71 35.2812 195.355 35.4062 195.011 35.4844C194.675 35.5703 194.202 35.6133 193.593 35.6133C192.687 35.6133 191.913 35.3477 191.273 34.8164C190.632 34.2773 190.312 33.5664 190.312 32.6836C190.312 32.1758 190.382 31.7461 190.523 31.3945C190.663 31.0352 190.863 30.7188 191.12 30.4453C191.355 30.1953 191.624 29.9883 191.929 29.8242C192.241 29.6602 192.581 29.5078 192.948 29.3672C193.652 29.1094 194.495 28.8438 195.48 28.5703C196.464 28.2891 197.183 28.0391 197.636 27.8203V26.6953C197.636 26.5 197.62 26.2422 197.589 25.9219C197.558 25.6016 197.491 25.332 197.39 25.1133C197.28 24.8633 197.109 24.6523 196.874 24.4805C196.64 24.3086 196.331 24.2227 195.948 24.2227C195.605 24.2227 195.316 24.2734 195.081 24.375C194.855 24.4688 194.671 24.5664 194.53 24.668C194.554 24.8242 194.62 25.0625 194.73 25.3828C194.839 25.7031 194.894 26.0117 194.894 26.3086C194.894 26.4414 194.859 26.6094 194.788 26.8125C194.718 27.0078 194.616 27.1641 194.484 27.2812C194.304 27.4375 194.101 27.5586 193.874 27.6445C193.655 27.7305 193.316 27.7734 192.855 27.7734C192.198 27.7734 191.702 27.6172 191.366 27.3047C191.03 26.9844 190.863 26.5703 190.863 26.0625C190.863 25.625 191.034 25.2344 191.378 24.8906C191.73 24.5391 192.155 24.25 192.655 24.0234C193.148 23.7891 193.714 23.6094 194.355 23.4844C194.995 23.3516 195.589 23.2852 196.136 23.2852C196.894 23.2852 197.589 23.332 198.222 23.4258C198.855 23.5117 199.425 23.6953 199.933 23.9766C200.417 24.25 200.8 24.6484 201.081 25.1719C201.37 25.6875 201.515 26.3633 201.515 27.1992C201.515 28.082 201.495 29.1289 201.456 30.3398C201.425 31.5508 201.409 32.3477 201.409 32.7305C201.409 33.082 201.46 33.3594 201.562 33.5625C201.671 33.7656 201.835 33.918 202.054 34.0195C202.187 34.082 202.394 34.1211 202.675 34.1367C202.964 34.1445 203.226 34.1484 203.46 34.1484V35.0039ZM197.636 28.8984C197.198 29.0469 196.765 29.2188 196.335 29.4141C195.905 29.6016 195.554 29.8008 195.28 30.0117C194.991 30.2305 194.765 30.5117 194.601 30.8555C194.437 31.1914 194.355 31.5898 194.355 32.0508C194.355 32.6602 194.491 33.1016 194.765 33.375C195.046 33.6484 195.39 33.7852 195.796 33.7852C196.226 33.7852 196.577 33.6992 196.851 33.5273C197.132 33.3477 197.378 33.1289 197.589 32.8711L197.636 28.8984Z" fill="#2E5AAC"/>
<path d="M76.5459 27.9912H70.541V33.9961H68.4463V27.9912H62.4414V25.9219H68.4463V19.917H70.541V25.9219H76.5459V27.9912Z" fill="#2E5AAC"/>
<path opacity="0.3" d="M29.7945 55.25C34.6307 55.25 38.5512 53.9432 38.5512 52.3311C38.5512 50.719 34.6307 49.4122 29.7945 49.4122C24.9583 49.4122 21.0377 50.719 21.0377 52.3311C21.0377 53.9432 24.9583 55.25 29.7945 55.25Z" fill="#2E5AAC"/>
<path d="M29.7944 34.0878C43.9001 34.0878 55.335 30.8207 55.335 26.7905C55.335 22.7603 43.9001 19.4932 29.7944 19.4932C15.6888 19.4932 4.25391 22.7603 4.25391 26.7905C4.25391 30.8207 15.6888 34.0878 29.7944 34.0878Z" stroke="#2E5AAC" stroke-width="2.5"/>
<path d="M29.7944 52.3311C43.9001 52.3311 55.335 40.8962 55.335 26.7905C55.335 12.6849 43.9001 1.25 29.7944 1.25C15.6888 1.25 4.25391 12.6849 4.25391 26.7905C4.25391 40.8962 15.6888 52.3311 29.7944 52.3311Z" stroke="#2E5AAC" stroke-width="2.5"/>
<path d="M29.7945 52.3311C33.8247 52.3311 37.0918 40.8962 37.0918 26.7905C37.0918 12.6849 33.8247 1.25 29.7945 1.25C25.7643 1.25 22.4972 12.6849 22.4972 26.7905C22.4972 40.8962 25.7643 52.3311 29.7945 52.3311Z" stroke="#2E5AAC" stroke-width="2"/>
<path d="M34.1592 36.8287C48.2037 30.7219 57.6349 21.2773 55.2243 15.7334C52.8138 10.1895 39.4743 10.6458 25.4298 16.7525C11.3853 22.8592 1.95414 32.3039 4.36469 37.8478C6.77523 43.3917 20.1147 42.9354 34.1592 36.8287Z" stroke="#2E5AAC" stroke-width="2"/>
<path d="M29.7945 35.5473C34.6307 35.5473 38.5512 31.6267 38.5512 26.7905C38.5512 21.9543 34.6307 18.0338 29.7945 18.0338C24.9583 18.0338 21.0377 21.9543 21.0377 26.7905C21.0377 31.6267 24.9583 35.5473 29.7945 35.5473Z" fill="#2E5AAC" stroke="#2E5AAC" stroke-width="2"/>
<path d="M27.5801 27.5955C26.85 27.5955 26.1288 27.7554 25.4671 28.064C24.8054 28.3725 24.2193 28.8222 23.75 29.3815V24.1207C24.2193 24.68 24.8054 25.1297 25.4671 25.4383C26.1288 25.7468 26.85 25.9067 27.5801 25.9067H28.9067V24.5801C28.9067 23.85 28.7468 23.1288 28.4383 22.4671C28.1297 21.8054 27.68 21.2193 27.1207 20.75H32.3815C31.8222 21.2193 31.3725 21.8054 31.064 22.4671C30.7554 23.1288 30.5955 23.85 30.5955 24.5801V25.9067H31.9199C32.65 25.9067 33.3712 25.7468 34.0329 25.4383C34.6946 25.1297 35.2807 24.68 35.75 24.1207V29.3815C35.2807 28.8222 34.6946 28.3725 34.0329 28.064C33.3712 27.7554 32.65 27.5955 31.9199 27.5955H30.5955V28.9199C30.5955 29.65 30.7554 30.3712 31.064 31.0329C31.3725 31.6946 31.8222 32.2807 32.3815 32.75H27.1207C27.68 32.2807 28.1297 31.6946 28.4383 31.0329C28.7468 30.3712 28.9067 29.65 28.9067 28.9199V27.5955H27.5801Z" fill="white"/>
</svg>
