<svg width="60" height="56" viewBox="0 0 60 56" fill="none" xmlns="http://www.w3.org/2000/svg">
<path opacity="0.3" d="M29.7945 55.25C34.6307 55.25 38.5513 53.9432 38.5513 52.3311C38.5513 50.719 34.6307 49.4122 29.7945 49.4122C24.9583 49.4122 21.0378 50.719 21.0378 52.3311C21.0378 53.9432 24.9583 55.25 29.7945 55.25Z" fill="white"/>
<path d="M29.7945 34.0878C43.9002 34.0878 55.335 30.8207 55.335 26.7905C55.335 22.7604 43.9002 19.4932 29.7945 19.4932C15.6889 19.4932 4.25397 22.7604 4.25397 26.7905C4.25397 30.8207 15.6889 34.0878 29.7945 34.0878Z" stroke="white" stroke-width="2.5"/>
<path d="M29.7945 52.3311C43.9002 52.3311 55.335 40.8962 55.335 26.7905C55.335 12.6849 43.9002 1.25 29.7945 1.25C15.6889 1.25 4.25397 12.6849 4.25397 26.7905C4.25397 40.8962 15.6889 52.3311 29.7945 52.3311Z" stroke="white" stroke-width="2.5"/>
<path d="M29.7945 52.3311C33.8247 52.3311 37.0918 40.8962 37.0918 26.7905C37.0918 12.6849 33.8247 1.25 29.7945 1.25C25.7643 1.25 22.4972 12.6849 22.4972 26.7905C22.4972 40.8962 25.7643 52.3311 29.7945 52.3311Z" stroke="white" stroke-width="2"/>
<path d="M34.1592 36.8286C48.2037 30.7219 57.6349 21.2772 55.2243 15.7333C52.8138 10.1895 39.4743 10.6457 25.4298 16.7525C11.3853 22.8592 1.95414 32.3039 4.36469 37.8478C6.77523 43.3916 20.1147 42.9354 34.1592 36.8286Z" stroke="white" stroke-width="2"/>
<path d="M29.7945 35.5473C34.6307 35.5473 38.5513 31.6267 38.5513 26.7905C38.5513 21.9543 34.6307 18.0338 29.7945 18.0338C24.9583 18.0338 21.0378 21.9543 21.0378 26.7905C21.0378 31.6267 24.9583 35.5473 29.7945 35.5473Z" fill="white" stroke="white" stroke-width="2"/>
<path d="M27.5801 27.5955C26.85 27.5955 26.1288 27.7554 25.4671 28.064C24.8054 28.3725 24.2193 28.8222 23.75 29.3815V24.1207C24.2193 24.68 24.8054 25.1297 25.4671 25.4383C26.1288 25.7468 26.85 25.9067 27.5801 25.9067H28.9067V24.5801C28.9067 23.85 28.7468 23.1288 28.4383 22.4671C28.1297 21.8054 27.68 21.2193 27.1207 20.75H32.3815C31.8222 21.2193 31.3725 21.8054 31.064 22.4671C30.7554 23.1288 30.5955 23.85 30.5955 24.5801V25.9067H31.9199C32.65 25.9067 33.3712 25.7468 34.0329 25.4383C34.6946 25.1297 35.2807 24.68 35.75 24.1207V29.3815C35.2807 28.8222 34.6946 28.3725 34.0329 28.064C33.3712 27.7554 32.65 27.5955 31.9199 27.5955H30.5955V28.9199C30.5955 29.65 30.7554 30.3712 31.064 31.0329C31.3725 31.6946 31.8222 32.2807 32.3815 32.75H27.1207C27.68 32.2807 28.1297 31.6946 28.4383 31.0329C28.7468 30.3712 28.9067 29.65 28.9067 28.9199V27.5955H27.5801Z" fill="#2E5AAC"/>
</svg>
